<?xml version="1.0" encoding="UTF-8"?>
<svg xmlns="http://www.w3.org/2000/svg" xmlns:xlink="http://www.w3.org/1999/xlink" width="256px" height="256px" viewBox="0 0 256 255" version="1.1">
<g id="surface1">
<path style=" stroke:none;fill-rule:nonzero;fill:rgb(96.470588%,80.000001%,43.137255%);fill-opacity:1;" d="M 232.453125 79.632812 L 243.371094 71.714844 C 237.128906 58.761719 228.785156 47.03125 218.507812 36.777344 C 206.757812 25.046875 193.066406 15.835938 177.824219 9.398438 C 166.359375 4.558594 154.375 1.453125 142.054688 0.113281 L 142.054688 13.410156 C 182.316406 18.335938 216.199219 44.152344 232.453125 79.632812 Z M 232.453125 79.632812 "/>
<path style=" stroke:none;fill-rule:nonzero;fill:rgb(96.470588%,80.000001%,43.137255%);fill-opacity:1;" d="M 0 127.121094 C 0 144.367188 3.386719 161.097656 10.0625 176.855469 C 16.507812 192.070312 25.738281 205.730469 37.492188 217.464844 C 38.179688 218.152344 38.878906 218.832031 39.582031 219.503906 L 50.515625 211.574219 C 27.605469 190.617188 13.21875 160.511719 13.21875 127.121094 C 13.21875 119.417969 13.984375 111.886719 15.445312 104.605469 L 3.78125 96.148438 C 1.269531 106.207031 0 116.570312 0 127.121094 Z M 0 127.121094 "/>
<path style=" stroke:none;fill-rule:nonzero;fill:rgb(96.470588%,80.000001%,43.137255%);fill-opacity:1;" d="M 113.945312 13.40625 L 113.945312 0.113281 C 101.621094 1.453125 89.640625 4.558594 78.175781 9.398438 C 62.933594 15.835938 49.242188 25.046875 37.492188 36.777344 C 27.96875 46.285156 20.101562 57.058594 14.03125 68.898438 L 24.90625 76.785156 C 41.636719 42.777344 74.773438 18.203125 113.945312 13.410156 Z M 113.945312 13.40625 "/>
<path style=" stroke:none;fill-rule:nonzero;fill:rgb(96.470588%,80.000001%,43.137255%);fill-opacity:1;" d="M 128 241.691406 C 108.820312 241.691406 90.722656 236.972656 74.816406 228.632812 L 62.988281 237.210938 C 67.855469 240.078125 72.921875 242.625 78.175781 244.84375 C 93.960938 251.507812 110.722656 254.886719 128 254.886719 C 145.277344 254.886719 162.039062 251.503906 177.824219 244.84375 C 184.121094 242.183594 190.152344 239.050781 195.886719 235.464844 L 184.203125 226.992188 C 167.582031 236.347656 148.402344 241.691406 127.996094 241.691406 Z M 128 241.691406 "/>
<path style=" stroke:none;fill-rule:nonzero;fill:rgb(96.470588%,80.000001%,43.137255%);fill-opacity:1;" d="M 245.9375 176.855469 C 252.617188 161.097656 256 144.367188 256 127.121094 C 256 117.710938 254.988281 108.453125 252.988281 99.421875 L 241.179688 107.984375 C 242.234375 114.210938 242.78125 120.605469 242.78125 127.121094 C 242.78125 159.382812 229.351562 188.566406 207.789062 209.410156 L 218.671875 217.304688 C 230.347656 205.609375 239.523438 192 245.9375 176.855469 Z M 245.9375 176.855469 "/>
<path style=" stroke:none;fill-rule:nonzero;fill:rgb(96.470588%,80.000001%,36.078432%);fill-opacity:1;" d="M 128 0.441406 L 156.460938 87.875 L 248.5625 87.875 L 174.050781 141.914062 L 202.511719 229.347656 L 128 175.308594 L 53.488281 229.347656 L 81.949219 141.914062 L 7.4375 87.875 L 99.539062 87.875 Z M 128 0.441406 "/>
</g>
</svg>
